<svg width="235" height="235" viewBox="0 0 235 235" fill="none" xmlns="http://www.w3.org/2000/svg">
<rect width="235" height="235" rx="63" fill="#F5F4EE"/>
<circle cx="153.17" cy="72.8304" r="52.8304" fill="#C59CCC"/>
<circle cx="82.7291" cy="105.474" r="52.8304" fill="#D8ABDF"/>
<circle cx="153.17" cy="136.399" r="52.8304" fill="#D0B7D5"/>
<circle cx="63.8304" cy="165.606" r="52.8304" fill="#EACAEF"/>
<ellipse cx="76.2863" cy="134.251" rx="12.8855" ry="12.0264" fill="#F3E6F5"/>
<ellipse cx="169.921" cy="105.044" rx="9.44934" ry="8.59031" fill="#EEDBF1"/>
<ellipse cx="102.916" cy="71.9714" rx="9.44934" ry="9.01982" fill="#ECCBF1"/>
<ellipse cx="179.37" cy="40.1872" rx="7.73128" ry="7.30176" fill="#E6D5E9"/>
<path d="M60.4923 162.683C59.2457 154.082 59.5947 141.291 70.9638 158.943M85.5492 152.586C84.3026 143.984 84.6516 131.194 96.0207 148.846" stroke="black"/>
<path d="M89.982 168.94C90.787 170.985 91.0159 173.008 90.7589 174.613C90.4998 176.231 89.7711 177.327 88.753 177.728C87.7348 178.129 86.4541 177.823 85.162 176.815C83.8801 175.816 82.6693 174.18 81.8643 172.134C81.0594 170.089 80.8304 168.066 81.0874 166.461C81.3465 164.844 82.0753 163.747 83.0934 163.346C84.1115 162.946 85.3922 163.251 86.6843 164.259C87.9662 165.258 89.177 166.894 89.982 168.94Z" fill="#F0EAEA" stroke="black"/>
<path d="M142.492 128.683C141.246 120.082 141.595 107.291 152.964 124.943M167.549 118.586C166.303 109.984 166.652 97.194 178.021 114.846" stroke="black"/>
<path d="M171.982 134.94C172.787 136.985 173.016 139.008 172.759 140.613C172.5 142.231 171.771 143.327 170.753 143.728C169.735 144.129 168.454 143.823 167.162 142.815C165.88 141.816 164.669 140.18 163.864 138.134C163.059 136.089 162.83 134.066 163.087 132.461C163.347 130.844 164.075 129.747 165.093 129.346C166.111 128.946 167.392 129.251 168.684 130.259C169.966 131.258 171.177 132.894 171.982 134.94Z" fill="#F0EAEA" stroke="black"/>
<path d="M137.5 60.6156C136.233 52.798 136.588 41.1736 148.145 57.2167M162.972 51.4387C161.705 43.6211 162.06 31.9967 173.617 48.0397" stroke="black"/>
<path d="M167.48 66.3016C168.293 68.1488 168.524 69.9742 168.264 71.4224C168.004 72.8769 167.268 73.8833 166.214 74.2543C165.159 74.6254 163.854 74.337 162.554 73.4314C161.261 72.5296 160.038 71.053 159.225 69.2058C158.412 67.3586 158.181 65.5332 158.44 64.0849C158.701 62.6305 159.437 61.624 160.491 61.253C161.546 60.882 162.851 61.1704 164.15 62.076C165.444 62.9778 166.667 64.4543 167.48 66.3016Z" fill="#F0EAEA" stroke="black"/>
<path d="M74.6586 90.7286C73.3914 82.911 73.7462 71.2865 85.3036 87.3296M100.13 81.5516C98.8632 73.734 99.218 62.1096 110.775 78.1526" stroke="black"/>
<path d="M104.638 96.4145C105.451 98.2617 105.682 100.087 105.422 101.535C105.162 102.99 104.426 103.996 103.372 104.367C102.317 104.738 101.012 104.45 99.7126 103.544C98.4188 102.642 97.1963 101.166 96.3832 99.3187C95.5702 97.4715 95.3392 95.6461 95.5987 94.1978C95.8592 92.7434 96.5947 91.7369 97.6492 91.3659C98.7038 90.9949 100.009 91.2833 101.309 92.1889C102.602 93.0907 103.825 94.5673 104.638 96.4145Z" fill="#F0EAEA" stroke="black"/>
</svg>
